<svg xmlns="http://www.w3.org/2000/svg" viewBox="0 0 64 64">
  <defs>
    <linearGradient id="grad" x1="0%" y1="0%" x2="100%" y2="100%">
      <stop offset="0%" stop-color="#4f46e5" />
      <stop offset="100%" stop-color="#0ea5e9" />
    </linearGradient>
    <filter id="shadow" x="-20%" y="-20%" width="140%" height="140%">
      <feDropShadow dx="0" dy="2" stdDeviation="2" flood-color="#0f172a" flood-opacity="0.25" />
    </filter>
  </defs>
  <rect x="6" y="6" width="52" height="52" rx="12" fill="url(#grad)" filter="url(#shadow)" />
  <path d="M18 22c0-2.2 1.8-4 4-4h20c2.2 0 4 1.8 4 4v20c0 2.2-1.8 4-4 4H22c-2.2 0-4-1.8-4-4V22z" fill="#0f172a" opacity="0.12" />
  <path d="M20 24l12 9 12-9" fill="none" stroke="#f8fafc" stroke-width="4" stroke-linecap="round" stroke-linejoin="round" />
  <path d="M20 26v14c0 2.2 1.8 4 4 4h16c2.2 0 4-1.8 4-4V26l-12 9z" fill="#f8fafc" opacity="0.2" />
  <text x="32" y="39" font-size="16" font-weight="700" text-anchor="middle" fill="#f8fafc">A</text>
</svg>
